{"title":"UFC Fight Night 79 Official Weigh-Ins 720p WEB-DL x264 - TX -={S","uid":12859126,"size":580902095,"categoryP":"video","categoryS":"hd___tv_shows","magnet":"?xt=urn:btih:f5b8fba561986671caa958895f0fc5d4293c2d71&amp;dn=UFC+Fight+Night+79+Official+Weigh-Ins+720p+WEB-DL+x264+-+TX+-%3D%7BS&amp;tr=udp%3A%2F%2Ftracker.leechers-paradise.org%3A6969&amp;tr=udp%3A%2F%2Fzer0day.ch%3A1337&amp;tr=udp%3A%2F%2Fopen.demonii.com%3A1337&amp;tr=udp%3A%2F%2Ftracker.coppersurfer.tk%3A6969&amp;tr=udp%3A%2F%2Fexodus.desync.com%3A6969","seeders":0,"leechers":1,"uploader":"CenaCme","files":2,"time":1448714419,"description":"UFC Fight Night 79 Official Weigh-Ins 720p WEB-DL x264 - TX\r\n\r\n\r\nVideo\r\nID                                       : 1\r\nFormat                                   : AVC\r\nFormat/Info                              : Advanced Video Codec\r\nFormat profile                           :   \r\nFormat settings, CABAC                   : Yes\r\nFormat settings, ReFrames                : 1 frame\r\nCodec ID                                 : avc1\r\nCodec ID/Info                            : Advanced Video Coding\r\nDuration                                 : 29mn 27s\r\nBit rate                                 : 2 435 Kbps\r\nMaximum bit rate                         : 6 438 Kbps\r\nWidth                                    : 1 280 pixels\r\nHeight                                   : 720 pixels\r\nDisplay aspect ratio                     : 16:9\r\nFrame rate mode                          : Constant\r\nFrame rate                               : 30.000 fps\r\nColor space                              : YUV\r\nChroma subsampling                       : 4:2:0\r\nBit depth                                : 8 bits\r\nScan type                                : Progressive\r\nBits/(Pixel*Frame)                       : 0.088\r\nStream size                              : 513 MiB (93%)\r\n\r\n\r\nAudio\r\nID                                       : 2\r\nFormat                                   : AAC\r\nFormat/Info                              : Advanced Audio Codec\r\nFormat profile                           : LC\r\nCodec ID                                 : 40\r\nDuration                                 : 29mn 27s\r\nBit rate mode                            : Variable\r\nBit rate                                 : 192 Kbps\r\nMaximum bit rate                         : 201 Kbps\r\nChannel(s)                               : 2 channels\r\nChannel positions                        : Front: L R\r\nSampling rate                            : 44.1 KHz\r\nCompression mode                         : Lossy\r\nStream size                              : 40.4 MiB (7%)\r\n\r\n\r\nThumb sheet:\r\n \nhttp://imgsparrow.co/image/9bu","torrent":{"xt":"urn:btih:f5b8fba561986671caa958895f0fc5d4293c2d71","amp;dn":"UFC+Fight+Night+79+Official+Weigh-Ins+720p+WEB-DL+x264+-+TX+-%3D%7BS","amp;tr":["udp%3A%2F%2Ftracker.leechers-paradise.org%3A6969","udp%3A%2F%2Fzer0day.ch%3A1337","udp%3A%2F%2Fopen.demonii.com%3A1337","udp%3A%2F%2Ftracker.coppersurfer.tk%3A6969","udp%3A%2F%2Fexodus.desync.com%3A6969"],"infoHash":"f5b8fba561986671caa958895f0fc5d4293c2d71","infoHashBuffer":{"type":"Buffer","data":[245,184,251,165,97,152,102,113,202,169,88,137,95,15,197,212,41,60,45,113]},"announce":[],"urlList":[]}}